<svg width="67.733" height="67.733" viewBox="0 0 17.921 17.921" xmlns="http://www.w3.org/2000/svg" xmlns:xlink="http://www.w3.org/1999/xlink"><defs><linearGradient id="prefix__d" x1="237.19" x2="237.07" y1="296.2" y2="304.08" gradientTransform="matrix(.04476 0 0 .04468 -8.592 -4.63)" gradientUnits="userSpaceOnUse" xlink:href="#prefix__a"/><linearGradient id="prefix__a"><stop stop-color="#001313" offset="0"/><stop stop-color="#001313" stop-opacity="0" offset="1"/></linearGradient><linearGradient id="prefix__e" x1="994.81" x2="982.34" y1="1533.3" y2="1556.8" gradientTransform="matrix(.08414 0 0 .08399 -76.331 -126.67)" gradientUnits="userSpaceOnUse" xlink:href="#prefix__b"/><linearGradient id="prefix__b"><stop stop-color="#020202" offset="0"/><stop stop-color="#020202" stop-opacity="0" offset="1"/></linearGradient><linearGradient id="prefix__f" x1="1022.5" x2="1018.6" y1="1582.4" y2="1575.6" gradientTransform="matrix(.08638 0 0 .0818 -79.192 -124.97)" gradientUnits="userSpaceOnUse" xlink:href="#prefix__b"/><linearGradient id="prefix__g" x1="940.43" x2="930.59" y1="1612.5" y2="1594.5" gradientTransform="matrix(.08414 0 0 .08399 -76.331 -126.67)" gradientUnits="userSpaceOnUse" xlink:href="#prefix__b"/><linearGradient id="prefix__h" x1="965.6" x2="951.66" y1="1571.4" y2="1571.3" gradientTransform="matrix(.08414 0 0 .08399 -76.331 -126.67)" gradientUnits="userSpaceOnUse" xlink:href="#prefix__b"/><linearGradient id="prefix__i" x1="946.23" x2="961.37" y1="1655.9" y2="1655.8" gradientTransform="matrix(.08414 0 0 .08399 -76.331 -126.67)" gradientUnits="userSpaceOnUse" xlink:href="#prefix__b"/><linearGradient id="prefix__j" x1="366.15" x2="350.92" y1="427.32" y2="419.64" gradientTransform="matrix(.04476 0 0 .04468 -10.921 -4.435)" gradientUnits="userSpaceOnUse" xlink:href="#prefix__a"/><linearGradient id="prefix__k" x1="936.34" x2="933.38" y1="1628.8" y2="1623" gradientTransform="matrix(.08414 0 0 .08399 -76.331 -126.67)" gradientUnits="userSpaceOnUse" xlink:href="#prefix__b"/><linearGradient id="prefix__l" x1="950.33" x2="941.97" y1="1618.6" y2="1645.8" gradientTransform="matrix(.08414 0 0 .08399 -76.331 -126.67)" gradientUnits="userSpaceOnUse" xlink:href="#prefix__b"/><linearGradient id="prefix__m" x1="1008.2" x2="1015.7" y1="1681.3" y2="1668.4" gradientTransform="matrix(.08414 0 0 .08399 -76.331 -126.67)" gradientUnits="userSpaceOnUse" xlink:href="#prefix__b"/><linearGradient id="prefix__n" x1="1148.3" x2="1145.4" y1="1585.5" y2="1630" gradientTransform="translate(-282.87 -491.67) scale(.34992)" gradientUnits="userSpaceOnUse" xlink:href="#prefix__c"/><linearGradient id="prefix__c"><stop stop-color="#008066" stop-opacity="0" offset="0"/><stop stop-color="#0fc" offset="1"/></linearGradient><linearGradient id="prefix__o" x1="1148.3" x2="1145.4" y1="1585.5" y2="1630" gradientTransform="translate(-211.15 -375.49) scale(.26565)" gradientUnits="userSpaceOnUse" xlink:href="#prefix__c"/><linearGradient id="prefix__p" x1="1148.3" x2="1145.4" y1="1585.5" y2="1630" gradientTransform="translate(-53.624 -195.03) scale(.13679)" gradientUnits="userSpaceOnUse" xlink:href="#prefix__c"/><linearGradient id="prefix__q" x1="348.05" x2="361.21" y1="194.78" y2="187.24" gradientTransform="matrix(.04476 0 0 .04468 -10.921 -4.435)" gradientUnits="userSpaceOnUse" xlink:href="#prefix__a"/></defs><path d="M4.329 1.924h8.345l-2.112 3.653H6.036L4.15 8.837l1.912 3.307h8.829l-2.167 3.745H4.15L.013 8.737l3.96-6.848z" fill="#fff"/><path d="M3.973 1.89l6.589 3.687 2.112-3.653zM6.062 12.144L4.149 15.89h8.575l2.166-3.746z" fill="#0a8"/><path d="M3.973 1.89l6.589 3.687H6.036L4.15 8.837l1.912 3.307-1.913 3.745L.013 8.737l3.96-6.848" fill="#0cf"/><path d="M.013 8.737l4.137.1.115.199-4.123-.083z" fill="url(#prefix__d)"/><path d="M10.562 5.577L3.973 1.89l-.5.902 4.994 2.765z" fill="url(#prefix__e)"/><path d="M6.003 5.543l6.711-3.784-2.169 3.558z" fill="url(#prefix__f)"/><path d="M6.036 5.577l6.638-3.653-2.112 3.653zM.013 8.737l6.023-3.16-1.886 3.26z" fill="#0a8"/><path d="M.013 8.737l6.023-3.16-.407-.635L.438 7.945z" fill="url(#prefix__g)"/><path d="M6.036 5.577L3.973 1.89l.177 6.949z" fill="#0a8"/><path d="M6.062 12.144l6.662 3.746 2.166-3.746z" fill="#0cf"/><path d="M3.973 1.89l-.501.901.048 6.017.63.03z" fill="url(#prefix__h)"/><path d="M4.15 8.838L.99 10.418 4.15 15.89z" fill="#0a8"/><path d="M4.15 8.838v7.051l.774-1.507.06-4.134z" fill="url(#prefix__i)"/><path d="M4.15 15.889l-.299-.535 1.92-3.7.29.49z" fill="url(#prefix__j)"/><path d="M.991 10.419L4.15 8.838l-.63-.03-2.74 1.307z" fill="url(#prefix__k)"/><path d="M.991 10.419l5.07 1.725L4.15 8.838z" fill="#0a8"/><path d="M6.062 12.144l-5.07-1.725.55.95 4.167 1.51z" fill="url(#prefix__l)"/><path d="M6.062 12.144l6.662 3.746.799-1.42-4.288-2.363z" fill="url(#prefix__m)"/><g transform="matrix(.14699 0 0 .14672 -.848 -.426)"><circle cx="117.95" cy="75.441" r="9.689" fill="#0cf"/><circle cx="118.08" cy="75.341" r="9.689" fill="url(#prefix__n)"/></g><g transform="matrix(.14699 0 0 .14672 -.2 -.75)"><circle cx="93.138" cy="55.045" r="7.356" fill="#0cf"/><circle cx="93.239" cy="54.969" r="7.356" fill="url(#prefix__o)"/></g><g transform="matrix(.14699 0 0 .14672 -.17 -.326)"><circle cx="103.06" cy="26.657" r="3.788" fill="#0cf"/><circle cx="103.11" cy="26.618" r="3.788" fill="url(#prefix__p)"/></g><path d="M6.036 5.577L3.973 1.89l.525-.007 1.94 3.446z" fill="url(#prefix__q)"/></svg>